<?xml version="1.0"?>
<svg width="1024" height="1024" xmlns="http://www.w3.org/2000/svg" xmlns:svg="http://www.w3.org/2000/svg" class="icon" version="1.1">
 <g class="layer">
  <title>Layer 1</title>
  <path d="m332.8,686.08m-332.8,0a332.8,332.8 0 1 0 665.59,0a332.8,332.8 0 1 0 -665.59,0z" fill="#D3EFDE" id="svg_1" transform="matrix(1 0 0 1 0 0) matrix(1 0 0 1 0 0)"/>
  <path d="m883.19,1024l-639.99,0a141.05,141.05 0 0 1 -140.8,-140.8l0,-742.39a141.05,141.05 0 0 1 140.8,-140.8l516.34,0a88.32,88.32 0 0 1 63.49,25.6l189.7,189.69a38.4,38.4 0 0 1 11.26,27.91l0,639.99a141.05,141.05 0 0 1 -140.8,140.8zm-639.99,-947.19a64,64 0 0 0 -64,64l0,742.39a64,64 0 0 0 64,64l639.99,0a64,64 0 0 0 64,-64l0,-624.12l-179.2,-179.2a13.06,13.06 0 0 0 -8.45,-3.07l-516.34,0z" fill="#434260" id="svg_2"/>
  <path d="m204,595.97l20.73,-25.6a87.3,87.3 0 0 0 60.16,25.6c27.39,0 42.75,-12.8 42.75,-31.74s-15.36,-27.14 -36.35,-36.35l-31.23,-13.57a65.02,65.02 0 0 1 -46.08,-59.14a67.07,67.07 0 0 1 74.24,-62.46a97.02,97.02 0 0 1 69.38,30.72l-18.69,22.78a72.45,72.45 0 0 0 -49.92,-20.22c-23.04,0 -37.89,11.01 -37.89,28.93s17.92,26.88 36.35,34.3l30.98,13.06a62.98,62.98 0 0 1 45.05,60.92c0,36.1 -29.95,65.8 -79.36,65.8a112.13,112.13 0 0 1 -80.12,-33.03zm190.71,-196.86l35.84,0l0,92.16l96.52,0l0,-92.16l35.32,0l0,226.05l-35.32,0l0,-102.4l-96.52,0l0,102.4l-35.84,0l0,-226.05z" fill="#434260" id="svg_3" transform="matrix(1 0 0 1 0 0)"/>
  <ellipse cx="281.5" cy="511.5" fill="#D3EFDE" id="svg_10" rx="102" ry="131.5"/>
 </g>
</svg>